<svg id="visual" viewBox="0 0 900 600" width="900" height="600" xmlns="http://www.w3.org/2000/svg" xmlns:xlink="http://www.w3.org/1999/xlink" version="1.1"><path d="M0 360L21.5 361C43 362 86 364 128.8 371.7C171.7 379.3 214.3 392.7 257.2 403C300 413.3 343 420.7 385.8 425.8C428.7 431 471.3 434 514.2 431.5C557 429 600 421 642.8 422.8C685.7 424.7 728.3 436.3 771.2 436C814 435.7 857 423.3 878.5 417.2L900 411L900 601L878.5 601C857 601 814 601 771.2 601C728.3 601 685.7 601 642.8 601C600 601 557 601 514.2 601C471.3 601 428.7 601 385.8 601C343 601 300 601 257.2 601C214.3 601 171.7 601 128.8 601C86 601 43 601 21.5 601L0 601Z" fill="#ff5f6d"></path><path d="M0 421L21.5 420.7C43 420.3 86 419.7 128.8 417C171.7 414.3 214.3 409.7 257.2 409.5C300 409.3 343 413.7 385.8 418.3C428.7 423 471.3 428 514.2 436.2C557 444.3 600 455.7 642.8 457C685.7 458.3 728.3 449.7 771.2 442.7C814 435.7 857 430.3 878.5 427.7L900 425L900 601L878.5 601C857 601 814 601 771.2 601C728.3 601 685.7 601 642.8 601C600 601 557 601 514.2 601C471.3 601 428.7 601 385.8 601C343 601 300 601 257.2 601C214.3 601 171.7 601 128.8 601C86 601 43 601 21.5 601L0 601Z" fill="#ff7a64"></path><path d="M0 500L21.5 491.3C43 482.7 86 465.3 128.8 460.5C171.7 455.7 214.3 463.3 257.2 471C300 478.7 343 486.3 385.8 488C428.7 489.7 471.3 485.3 514.2 481C557 476.7 600 472.3 642.8 466.7C685.7 461 728.3 454 771.2 457C814 460 857 473 878.5 479.5L900 486L900 601L878.5 601C857 601 814 601 771.2 601C728.3 601 685.7 601 642.8 601C600 601 557 601 514.2 601C471.3 601 428.7 601 385.8 601C343 601 300 601 257.2 601C214.3 601 171.7 601 128.8 601C86 601 43 601 21.5 601L0 601Z" fill="#ff9362"></path><path d="M0 506L21.5 503.7C43 501.3 86 496.7 128.8 499.8C171.7 503 214.3 514 257.2 515.8C300 517.7 343 510.3 385.8 504.8C428.7 499.3 471.3 495.7 514.2 499.5C557 503.3 600 514.7 642.8 513.3C685.7 512 728.3 498 771.2 491C814 484 857 484 878.5 484L900 484L900 601L878.5 601C857 601 814 601 771.2 601C728.3 601 685.7 601 642.8 601C600 601 557 601 514.2 601C471.3 601 428.7 601 385.8 601C343 601 300 601 257.2 601C214.3 601 171.7 601 128.8 601C86 601 43 601 21.5 601L0 601Z" fill="#ffab66"></path><path d="M0 552L21.5 552.3C43 552.7 86 553.3 128.8 548.8C171.7 544.3 214.3 534.7 257.2 535.3C300 536 343 547 385.8 547.2C428.7 547.3 471.3 536.7 514.2 531.8C557 527 600 528 642.8 533.8C685.7 539.7 728.3 550.3 771.2 553C814 555.7 857 550.3 878.5 547.7L900 545L900 601L878.5 601C857 601 814 601 771.2 601C728.3 601 685.7 601 642.8 601C600 601 557 601 514.2 601C471.3 601 428.7 601 385.8 601C343 601 300 601 257.2 601C214.3 601 171.7 601 128.8 601C86 601 43 601 21.5 601L0 601Z" fill="#ffc371"></path></svg>