<svg id="visual" viewBox="0 0 900 600" width="900" height="600" xmlns="http://www.w3.org/2000/svg" xmlns:xlink="http://www.w3.org/1999/xlink" version="1.1"><path d="M0 430L13.7 441.7C27.3 453.3 54.7 476.7 82 478.5C109.3 480.3 136.7 460.7 163.8 461.5C191 462.3 218 483.7 245.2 487C272.3 490.3 299.7 475.7 327 474.3C354.3 473 381.7 485 409 489.2C436.3 493.3 463.7 489.7 491 480.8C518.3 472 545.7 458 573 455.8C600.3 453.7 627.7 463.3 654.8 466.5C682 469.7 709 466.3 736.2 463.2C763.3 460 790.7 457 818 458.3C845.3 459.7 872.7 465.3 886.3 468.2L900 471L900 601L886.3 601C872.7 601 845.3 601 818 601C790.7 601 763.3 601 736.2 601C709 601 682 601 654.8 601C627.7 601 600.3 601 573 601C545.7 601 518.3 601 491 601C463.7 601 436.3 601 409 601C381.7 601 354.3 601 327 601C299.7 601 272.3 601 245.2 601C218 601 191 601 163.8 601C136.7 601 109.3 601 82 601C54.7 601 27.3 601 13.7 601L0 601Z" fill="#3498db"></path><path d="M0 461L13.7 470.7C27.3 480.3 54.7 499.7 82 503.3C109.3 507 136.7 495 163.8 487C191 479 218 475 245.2 472.3C272.3 469.7 299.7 468.3 327 476.3C354.3 484.3 381.7 501.7 409 506.3C436.3 511 463.7 503 491 498.3C518.3 493.7 545.7 492.3 573 487C600.3 481.7 627.7 472.3 654.8 479C682 485.7 709 508.3 736.2 515C763.3 521.7 790.7 512.3 818 506.8C845.3 501.3 872.7 499.7 886.3 498.8L900 498L900 601L886.3 601C872.7 601 845.3 601 818 601C790.7 601 763.3 601 736.2 601C709 601 682 601 654.8 601C627.7 601 600.3 601 573 601C545.7 601 518.3 601 491 601C463.7 601 436.3 601 409 601C381.7 601 354.3 601 327 601C299.7 601 272.3 601 245.2 601C218 601 191 601 163.8 601C136.7 601 109.3 601 82 601C54.7 601 27.3 601 13.7 601L0 601Z" fill="#3780b6"></path><path d="M0 527L13.7 524.2C27.3 521.3 54.7 515.7 82 516.5C109.3 517.3 136.7 524.7 163.8 523.2C191 521.7 218 511.3 245.2 514.2C272.3 517 299.7 533 327 541.8C354.3 550.7 381.7 552.3 409 547.7C436.3 543 463.7 532 491 523.8C518.3 515.7 545.7 510.3 573 510.8C600.3 511.3 627.7 517.7 654.8 523C682 528.3 709 532.7 736.2 528C763.3 523.3 790.7 509.7 818 505.5C845.3 501.3 872.7 506.7 886.3 509.3L900 512L900 601L886.3 601C872.7 601 845.3 601 818 601C790.7 601 763.3 601 736.2 601C709 601 682 601 654.8 601C627.7 601 600.3 601 573 601C545.7 601 518.3 601 491 601C463.7 601 436.3 601 409 601C381.7 601 354.3 601 327 601C299.7 601 272.3 601 245.2 601C218 601 191 601 163.8 601C136.7 601 109.3 601 82 601C54.7 601 27.3 601 13.7 601L0 601Z" fill="#366992"></path><path d="M0 551L13.7 550.8C27.3 550.7 54.7 550.3 82 544.8C109.3 539.3 136.7 528.7 163.8 523.5C191 518.3 218 518.7 245.2 525.5C272.3 532.3 299.7 545.7 327 548.8C354.3 552 381.7 545 409 539.8C436.3 534.7 463.7 531.3 491 528.7C518.3 526 545.7 524 573 531C600.3 538 627.7 554 654.8 554C682 554 709 538 736.2 536.2C763.3 534.3 790.7 546.7 818 547.7C845.3 548.7 872.7 538.3 886.3 533.2L900 528L900 601L886.3 601C872.7 601 845.3 601 818 601C790.7 601 763.3 601 736.2 601C709 601 682 601 654.8 601C627.7 601 600.3 601 573 601C545.7 601 518.3 601 491 601C463.7 601 436.3 601 409 601C381.7 601 354.3 601 327 601C299.7 601 272.3 601 245.2 601C218 601 191 601 163.8 601C136.7 601 109.3 601 82 601C54.7 601 27.3 601 13.7 601L0 601Z" fill="#325370"></path><path d="M0 565L13.7 569.3C27.3 573.7 54.7 582.3 82 583.2C109.3 584 136.7 577 163.8 574.3C191 571.7 218 573.3 245.2 575.5C272.3 577.7 299.7 580.3 327 580.8C354.3 581.3 381.7 579.7 409 578.5C436.3 577.3 463.7 576.7 491 575.7C518.3 574.7 545.7 573.3 573 573C600.3 572.7 627.7 573.3 654.8 571.5C682 569.7 709 565.3 736.2 562.7C763.3 560 790.7 559 818 562.5C845.3 566 872.7 574 886.3 578L900 582L900 601L886.3 601C872.7 601 845.3 601 818 601C790.7 601 763.3 601 736.2 601C709 601 682 601 654.8 601C627.7 601 600.3 601 573 601C545.7 601 518.3 601 491 601C463.7 601 436.3 601 409 601C381.7 601 354.3 601 327 601C299.7 601 272.3 601 245.2 601C218 601 191 601 163.8 601C136.7 601 109.3 601 82 601C54.7 601 27.3 601 13.7 601L0 601Z" fill="#2c3e50"></path></svg>